<svg width="20" height="20" viewBox="0 0 20 20" fill="none" xmlns="http://www.w3.org/2000/svg">
<path d="M7.50033 18.3332H12.5003C16.667 18.3332 18.3337 16.6665 18.3337 12.4998V7.49984C18.3337 3.33317 16.667 1.6665 12.5003 1.6665H7.50033C3.33366 1.6665 1.66699 3.33317 1.66699 7.49984V12.4998C1.66699 16.6665 3.33366 18.3332 7.50033 18.3332Z" stroke="#01A781" stroke-linecap="round" stroke-linejoin="round"/>
<path d="M12.9746 15.4165V12.1665" stroke="#01A781" stroke-miterlimit="10" stroke-linecap="round" stroke-linejoin="round"/>
<path d="M12.9746 6.2085V4.5835" stroke="#01A781" stroke-miterlimit="10" stroke-linecap="round" stroke-linejoin="round"/>
<path d="M12.9753 10.5418C14.1719 10.5418 15.1419 9.57178 15.1419 8.37516C15.1419 7.17855 14.1719 6.2085 12.9753 6.2085C11.7786 6.2085 10.8086 7.17855 10.8086 8.37516C10.8086 9.57178 11.7786 10.5418 12.9753 10.5418Z" stroke="#01A781" stroke-miterlimit="10" stroke-linecap="round" stroke-linejoin="round"/>
<path d="M7.02539 15.4165V13.7915" stroke="#01A781" stroke-miterlimit="10" stroke-linecap="round" stroke-linejoin="round"/>
<path d="M7.02539 7.8335V4.5835" stroke="#01A781" stroke-miterlimit="10" stroke-linecap="round" stroke-linejoin="round"/>
<path d="M7.02507 13.7918C8.22168 13.7918 9.19173 12.8218 9.19173 11.6252C9.19173 10.4285 8.22168 9.4585 7.02507 9.4585C5.82845 9.4585 4.8584 10.4285 4.8584 11.6252C4.8584 12.8218 5.82845 13.7918 7.02507 13.7918Z" stroke="#01A781" stroke-miterlimit="10" stroke-linecap="round" stroke-linejoin="round"/>
</svg>
