<svg width="17" height="16" viewBox="0 0 17 16" fill="none" xmlns="http://www.w3.org/2000/svg">
<path fill-rule="evenodd" clip-rule="evenodd" d="M9.18917 1.57386C9.1103 1.52525 9.01948 1.49951 8.92683 1.49951C8.83419 1.49951 8.74337 1.52525 8.6645 1.57386L2.1645 5.57386C2.07166 5.63091 1.99999 5.71673 1.96041 5.81826C1.92084 5.91979 1.91551 6.03147 1.94525 6.1363C1.97498 6.24114 2.03816 6.33339 2.12515 6.39902C2.21214 6.46464 2.3182 6.50005 2.42717 6.49986H3.09383V11.3332H2.92717C2.75036 11.3332 2.58079 11.4034 2.45576 11.5285C2.33074 11.6535 2.2605 11.823 2.2605 11.9999V13.9999C2.2605 14.1767 2.33074 14.3462 2.45576 14.4713C2.58079 14.5963 2.75036 14.6665 2.92717 14.6665H14.9272C15.104 14.6665 15.2735 14.5963 15.3986 14.4713C15.5236 14.3462 15.5938 14.1767 15.5938 13.9999V11.9999C15.5938 11.823 15.5236 11.6535 15.3986 11.5285C15.2735 11.4034 15.104 11.3332 14.9272 11.3332H14.7605V6.49986H15.4272C15.5361 6.49991 15.642 6.46439 15.7289 6.39871C15.8158 6.33303 15.8789 6.24078 15.9085 6.13598C15.9382 6.03118 15.9328 5.91957 15.8932 5.8181C15.8536 5.71664 15.782 5.63088 15.6892 5.57386L9.18917 1.57386ZM13.7598 11.3332V6.49986H11.4265V11.3332H13.7598ZM10.4265 11.3332V6.49986H7.4265V11.3332H10.4265ZM6.4265 11.3332V6.49986H4.09317V11.3332H6.4265ZM13.6598 5.49986L8.9265 2.58652L4.19317 5.49986H13.6598ZM3.25983 13.6665V12.3332H14.5932V13.6665H3.25983Z" fill="#27436F"/>
</svg>
