<svg width="16" height="16" viewBox="0 0 16 16" fill="none" xmlns="http://www.w3.org/2000/svg">
<path d="M8.24658 1.43355L14.2466 3.83354C14.4799 3.92687 14.6666 4.20687 14.6666 4.45353V6.66687C14.6666 7.03354 14.3666 7.33354 13.9999 7.33354H1.99992C1.63325 7.33354 1.33325 7.03354 1.33325 6.66687V4.45353C1.33325 4.20687 1.51992 3.92687 1.75326 3.83354L7.75325 1.43355C7.88659 1.38022 8.11325 1.38022 8.24658 1.43355Z" stroke="#01A781" stroke-miterlimit="10" stroke-linecap="round" stroke-linejoin="round"/>
<path d="M14.6666 14.6667H1.33325V12.6667C1.33325 12.3 1.63325 12 1.99992 12H13.9999C14.3666 12 14.6666 12.3 14.6666 12.6667V14.6667Z" stroke="#01A781" stroke-miterlimit="10" stroke-linecap="round" stroke-linejoin="round"/>
<path d="M2.66663 12.0002V7.3335" stroke="#01A781" stroke-miterlimit="10" stroke-linecap="round" stroke-linejoin="round"/>
<path d="M5.33337 12.0002V7.3335" stroke="#01A781" stroke-miterlimit="10" stroke-linecap="round" stroke-linejoin="round"/>
<path d="M8 12.0002V7.3335" stroke="#01A781" stroke-miterlimit="10" stroke-linecap="round" stroke-linejoin="round"/>
<path d="M10.6666 12.0002V7.3335" stroke="#01A781" stroke-miterlimit="10" stroke-linecap="round" stroke-linejoin="round"/>
<path d="M13.3334 12.0002V7.3335" stroke="#01A781" stroke-miterlimit="10" stroke-linecap="round" stroke-linejoin="round"/>
<path d="M0.666748 14.6665H15.3334" stroke="#01A781" stroke-miterlimit="10" stroke-linecap="round" stroke-linejoin="round"/>
<path d="M8 5.6665C8.55228 5.6665 9 5.21879 9 4.6665C9 4.11422 8.55228 3.6665 8 3.6665C7.44772 3.6665 7 4.11422 7 4.6665C7 5.21879 7.44772 5.6665 8 5.6665Z" stroke="#01A781" stroke-miterlimit="10" stroke-linecap="round" stroke-linejoin="round"/>
</svg>
