<svg width="20" height="20" viewBox="0 0 20 20" fill="none" xmlns="http://www.w3.org/2000/svg">
<path d="M2.64172 6.19971L10 10.458L17.3084 6.22468" stroke="#01A781" stroke-linecap="round" stroke-linejoin="round"/>
<path d="M10 18.008V10.4497" stroke="#01A781" stroke-linecap="round" stroke-linejoin="round"/>
<path d="M8.27501 2.0665L3.82502 4.54153C2.81668 5.09986 1.9917 6.49985 1.9917 7.64985V12.3582C1.9917 13.5082 2.81668 14.9082 3.82502 15.4665L8.27501 17.9415C9.22501 18.4665 10.7833 18.4665 11.7333 17.9415L16.1834 15.4665C17.1917 14.9082 18.0167 13.5082 18.0167 12.3582V7.64985C18.0167 6.49985 17.1917 5.09986 16.1834 4.54153L11.7333 2.0665C10.775 1.53317 9.22501 1.53317 8.27501 2.0665Z" stroke="#01A781" stroke-linecap="round" stroke-linejoin="round"/>
<path d="M14.1666 11.0332V7.98321L6.2583 3.4165" stroke="#01A781" stroke-linecap="round" stroke-linejoin="round"/>
</svg>
