<svg width="20" height="20" viewBox="0 0 20 20" fill="none" xmlns="http://www.w3.org/2000/svg">
<path d="M15.8337 7.49984C15.8337 8.70817 15.4753 9.81652 14.8587 10.7415C13.9587 12.0748 12.5337 13.0165 10.8753 13.2582C10.592 13.3082 10.3003 13.3332 10.0003 13.3332C9.70033 13.3332 9.40866 13.3082 9.12533 13.2582C7.46699 13.0165 6.04199 12.0748 5.14199 10.7415C4.52533 9.81652 4.16699 8.70817 4.16699 7.49984C4.16699 4.27484 6.77533 1.6665 10.0003 1.6665C13.2253 1.6665 15.8337 4.27484 15.8337 7.49984Z" stroke="#01A781" stroke-linecap="round" stroke-linejoin="round"/>
<path d="M17.7082 15.3917L16.3332 15.7167C16.0249 15.7917 15.7832 16.025 15.7166 16.3333L15.4249 17.5583C15.2666 18.225 14.4166 18.425 13.9749 17.9L9.9999 13.3333L6.0249 17.9083C5.58324 18.4333 4.73324 18.2333 4.5749 17.5667L4.28324 16.3417C4.20824 16.0333 3.96657 15.7917 3.66657 15.725L2.29157 15.4C1.65824 15.25 1.43324 14.4583 1.89157 14L5.14157 10.75C6.04157 12.0833 7.46657 13.025 9.1249 13.2667C9.40824 13.3167 9.6999 13.3417 9.9999 13.3417C10.2999 13.3417 10.5916 13.3167 10.8749 13.2667C12.5332 13.025 13.9582 12.0833 14.8582 10.75L18.1082 14C18.5666 14.45 18.3416 15.2417 17.7082 15.3917Z" stroke="#01A781" stroke-linecap="round" stroke-linejoin="round"/>
<path d="M10.4836 4.9835L10.9753 5.96682C11.042 6.10016 11.217 6.2335 11.3753 6.2585L12.267 6.40849C12.8336 6.50016 12.967 6.91683 12.5586 7.32516L11.867 8.01682C11.7503 8.13348 11.6836 8.3585 11.7253 8.52516L11.9253 9.38349C12.0836 10.0585 11.7253 10.3251 11.1253 9.96681L10.292 9.47515C10.142 9.38348 9.89197 9.38348 9.74197 9.47515L8.90864 9.96681C8.30864 10.3168 7.9503 10.0585 8.10864 9.38349L8.30864 8.52516C8.34197 8.36683 8.28364 8.13348 8.16697 8.01682L7.4753 7.32516C7.06697 6.91683 7.2003 6.50849 7.76697 6.40849L8.65864 6.2585C8.80864 6.2335 8.98364 6.10016 9.0503 5.96682L9.54197 4.9835C9.78364 4.45016 10.217 4.45016 10.4836 4.9835Z" stroke="#01A781" stroke-linecap="round" stroke-linejoin="round"/>
</svg>
