<svg width="20" height="20" viewBox="0 0 20 20" fill="none" xmlns="http://www.w3.org/2000/svg">
<path d="M8.33337 13.3341C8.33337 11.9508 8.33337 10.8341 10.8334 10.8341H14.1667C16.6667 10.8341 16.6667 10.0008 16.6667 8.33415V6.66748C16.6667 5.00081 16.6667 4.16748 14.1667 4.16748H13.3334" stroke="#01A781" stroke-linecap="round" stroke-linejoin="round"/>
<path d="M9.99996 1.66748H6.66663C6.12496 3.29248 6.12496 5.04248 6.66663 6.66748H9.99996C10.5416 5.04248 10.5416 3.29248 9.99996 1.66748Z" stroke="#01A781" stroke-linecap="round" stroke-linejoin="round"/>
<path d="M6.66671 1.66748H5.83337C4.16671 1.66748 3.33337 2.50081 3.33337 4.16748C3.33337 5.83415 4.16671 6.66748 5.83337 6.66748H6.66671C5.83337 5.00081 5.83337 3.33415 6.66671 1.66748Z" stroke="#01A781" stroke-linecap="round" stroke-linejoin="round"/>
<path d="M10.8333 1.66748H10C10.8333 3.33415 10.8333 5.00081 10 6.66748H10.8333C12.5 6.66748 13.3333 5.83415 13.3333 4.16748C13.3333 2.50081 12.5 1.66748 10.8333 1.66748Z" stroke="#01A781" stroke-linecap="round" stroke-linejoin="round"/>
<path d="M7.91663 18.3345H8.74996C9.99996 18.3345 9.99996 17.5011 9.99996 17.0845V14.5845C9.99996 14.1678 9.99996 13.3345 8.74996 13.3345H7.91663C6.66663 13.3345 6.66663 14.1678 6.66663 14.5845V17.0845C6.66663 17.5011 6.66663 18.3345 7.91663 18.3345Z" stroke="#01A781" stroke-linecap="round" stroke-linejoin="round"/>
</svg>
