<svg width="20" height="20" viewBox="0 0 20 20" fill="none" xmlns="http://www.w3.org/2000/svg">
<path d="M0.833374 18.3359H19.1667" stroke="#01A781" stroke-miterlimit="10" stroke-linecap="round" stroke-linejoin="round"/>
<path d="M16.4834 18.3441V14.6274" stroke="#01A781" stroke-miterlimit="10" stroke-linecap="round" stroke-linejoin="round"/>
<path d="M16.5 9.07764C15.4833 9.07764 14.6666 9.89431 14.6666 10.911V12.8026C14.6666 13.8193 15.4833 14.636 16.5 14.636C17.5166 14.636 18.3333 13.8193 18.3333 12.8026V10.911C18.3333 9.89431 17.5166 9.07764 16.5 9.07764Z" stroke="#01A781" stroke-miterlimit="10" stroke-linecap="round" stroke-linejoin="round"/>
<path d="M1.75 18.3357V5.02743C1.75 3.35243 2.58338 2.51074 4.24171 2.51074H9.43336C11.0917 2.51074 11.9167 3.35243 11.9167 5.02743V18.3357" stroke="#01A781" stroke-miterlimit="10" stroke-linecap="round" stroke-linejoin="round"/>
<path d="M4.83337 6.87744H8.95838" stroke="#01A781" stroke-miterlimit="10" stroke-linecap="round" stroke-linejoin="round"/>
<path d="M4.83337 10.0024H8.95838" stroke="#01A781" stroke-miterlimit="10" stroke-linecap="round" stroke-linejoin="round"/>
<path d="M6.875 18.3359V15.2109" stroke="#01A781" stroke-miterlimit="10" stroke-linecap="round" stroke-linejoin="round"/>
</svg>
