<svg width="20" height="20" viewBox="0 0 20 20" fill="none" xmlns="http://www.w3.org/2000/svg">
<path d="M5.58398 7.7168L10.0006 10.2751L14.384 7.73346" stroke="#01A781" stroke-linecap="round" stroke-linejoin="round"/>
<path d="M10.001 14.8083V10.2666" stroke="#01A781" stroke-linecap="round" stroke-linejoin="round"/>
<path d="M8.96688 5.24187L6.3002 6.72521C5.7002 7.05854 5.2002 7.9002 5.2002 8.59187V11.4169C5.2002 12.1085 5.69187 12.9502 6.3002 13.2835L8.96688 14.7669C9.53355 15.0835 10.4669 15.0835 11.0419 14.7669L13.7085 13.2835C14.3085 12.9502 14.8085 12.1085 14.8085 11.4169V8.58354C14.8085 7.89187 14.3169 7.0502 13.7085 6.71687L11.0419 5.23354C10.4669 4.91687 9.53355 4.91687 8.96688 5.24187Z" stroke="#01A781" stroke-linecap="round" stroke-linejoin="round"/>
<path d="M18.3333 12.5C18.3333 15.725 15.725 18.3333 12.5 18.3333L13.375 16.875" stroke="#01A781" stroke-linecap="round" stroke-linejoin="round"/>
<path d="M1.66699 7.49984C1.66699 4.27484 4.27533 1.6665 7.50033 1.6665L6.62534 3.12484" stroke="#01A781" stroke-linecap="round" stroke-linejoin="round"/>
</svg>
