<svg width="16" height="16" viewBox="0 0 16 16" fill="none" xmlns="http://www.w3.org/2000/svg">
<path d="M5.33337 1.33337V3.33337" stroke="#01A781" stroke-miterlimit="10" stroke-linecap="round" stroke-linejoin="round"/>
<path d="M10.6666 1.33337V3.33337" stroke="#01A781" stroke-miterlimit="10" stroke-linecap="round" stroke-linejoin="round"/>
<path d="M2.33337 6.06006H13.6667" stroke="#01A781" stroke-miterlimit="10" stroke-linecap="round" stroke-linejoin="round"/>
<path d="M12 15.3333C13.4728 15.3333 14.6667 14.1394 14.6667 12.6667C14.6667 11.1939 13.4728 10 12 10C10.5273 10 9.33337 11.1939 9.33337 12.6667C9.33337 14.1394 10.5273 15.3333 12 15.3333Z" stroke="#01A781" stroke-miterlimit="10" stroke-linecap="round" stroke-linejoin="round"/>
<path d="M12.9933 12.7H11.0067" stroke="#01A781" stroke-miterlimit="10" stroke-linecap="round" stroke-linejoin="round"/>
<path d="M12 11.7267V13.72" stroke="#01A781" stroke-miterlimit="10" stroke-linecap="round" stroke-linejoin="round"/>
<path d="M14 5.66671V10.9067C13.5133 10.3534 12.8 10 12 10C10.5267 10 9.33333 11.1934 9.33333 12.6667C9.33333 13.1667 9.47333 13.64 9.72 14.04C9.86 14.28 10.04 14.4934 10.2467 14.6667H5.33333C3 14.6667 2 13.3334 2 11.3334V5.66671C2 3.66671 3 2.33337 5.33333 2.33337H10.6667C13 2.33337 14 3.66671 14 5.66671Z" stroke="#01A781" stroke-miterlimit="10" stroke-linecap="round" stroke-linejoin="round"/>
<path d="M7.99703 9.13338H8.00302" stroke="#01A781" stroke-width="1.5" stroke-linecap="round" stroke-linejoin="round"/>
<path d="M5.5295 9.13338H5.53549" stroke="#01A781" stroke-width="1.5" stroke-linecap="round" stroke-linejoin="round"/>
<path d="M5.5295 11.1334H5.53549" stroke="#01A781" stroke-width="1.5" stroke-linecap="round" stroke-linejoin="round"/>
</svg>
