<svg width="14" height="14" viewBox="0 0 14 14" fill="none" xmlns="http://www.w3.org/2000/svg">
<path d="M12.8158 10.6925C12.8158 10.9025 12.7692 11.1184 12.67 11.3284C12.5708 11.5384 12.4425 11.7367 12.2733 11.9234C11.9875 12.2384 11.6725 12.4659 11.3167 12.6117C10.9667 12.7575 10.5875 12.8334 10.1792 12.8334C9.58416 12.8334 8.94832 12.6934 8.27749 12.4075C7.60666 12.1217 6.93582 11.7367 6.27082 11.2525C5.59999 10.7625 4.96416 10.22 4.35749 9.61919C3.75666 9.01252 3.21416 8.37669 2.72999 7.71169C2.25166 7.04669 1.86666 6.38169 1.58666 5.72252C1.30666 5.05752 1.16666 4.42169 1.16666 3.81502C1.16666 3.41835 1.23666 3.03919 1.37666 2.68919C1.51666 2.33335 1.73832 2.00669 2.04749 1.71502C2.42082 1.34752 2.82916 1.16669 3.26082 1.16669C3.42416 1.16669 3.58749 1.20169 3.73332 1.27169C3.88499 1.34169 4.01916 1.44669 4.12416 1.59835L5.47749 3.50585C5.58249 3.65169 5.65832 3.78585 5.71082 3.91419C5.76332 4.03669 5.79249 4.15919 5.79249 4.27002C5.79249 4.41002 5.75166 4.55002 5.66999 4.68419C5.59416 4.81835 5.48332 4.95835 5.34332 5.09835L4.89999 5.55919C4.83582 5.62335 4.80666 5.69919 4.80666 5.79252C4.80666 5.83919 4.81249 5.88002 4.82416 5.92669C4.84166 5.97335 4.85916 6.00835 4.87082 6.04335C4.97582 6.23585 5.15666 6.48669 5.41332 6.79002C5.67582 7.09335 5.95582 7.40252 6.25916 7.71169C6.57416 8.02085 6.87749 8.30669 7.18666 8.56919C7.48999 8.82585 7.74082 9.00085 7.93916 9.10585C7.96832 9.11752 8.00332 9.13502 8.04416 9.15252C8.09082 9.17002 8.13749 9.17585 8.18999 9.17585C8.28916 9.17585 8.36499 9.14085 8.42916 9.07669L8.87249 8.63919C9.01832 8.49335 9.15832 8.38252 9.29249 8.31252C9.42666 8.23085 9.56082 8.19002 9.70665 8.19002C9.81749 8.19002 9.93416 8.21335 10.0625 8.26585C10.1908 8.31835 10.325 8.39419 10.4708 8.49335L12.4017 9.86419C12.5533 9.96919 12.6583 10.0917 12.7225 10.2375C12.7808 10.3834 12.8158 10.5292 12.8158 10.6925Z" stroke="#C4CDD5" stroke-width="1.5" stroke-miterlimit="10"/>
</svg>
