<svg width="20" height="20" viewBox="0 0 20 20" fill="none" xmlns="http://www.w3.org/2000/svg">
<path d="M11.667 13.3333C11.667 14.8083 11.0253 16.1416 10.0003 17.05C9.11699 17.85 7.95033 18.3333 6.66699 18.3333C3.90866 18.3333 1.66699 16.0916 1.66699 13.3333C1.66699 11.0333 3.23366 9.0833 5.35033 8.5083C5.92533 9.9583 7.15866 11.075 8.68366 11.4916C9.10033 11.6083 9.54199 11.6666 10.0003 11.6666C10.4587 11.6666 10.9003 11.6083 11.317 11.4916C11.542 12.0583 11.667 12.6833 11.667 13.3333Z" stroke="#01A781" stroke-linecap="round" stroke-linejoin="round"/>
<path d="M15 6.6665C15 7.3165 14.875 7.9415 14.65 8.50817C14.075 9.95817 12.8417 11.0748 11.3167 11.4915C10.9 11.6082 10.4583 11.6665 10 11.6665C9.54167 11.6665 9.1 11.6082 8.68333 11.4915C7.15833 11.0748 5.925 9.95817 5.35 8.50817C5.125 7.9415 5 7.3165 5 6.6665C5 3.90817 7.24167 1.6665 10 1.6665C12.7583 1.6665 15 3.90817 15 6.6665Z" stroke="#01A781" stroke-linecap="round" stroke-linejoin="round"/>
<path d="M18.3333 13.3333C18.3333 16.0916 16.0917 18.3333 13.3333 18.3333C12.05 18.3333 10.8833 17.85 10 17.05C11.025 16.1416 11.6667 14.8083 11.6667 13.3333C11.6667 12.6833 11.5417 12.0583 11.3167 11.4916C12.8417 11.075 14.075 9.9583 14.65 8.5083C16.7667 9.0833 18.3333 11.0333 18.3333 13.3333Z" stroke="#01A781" stroke-linecap="round" stroke-linejoin="round"/>
</svg>
