<svg width="20" height="20" viewBox="0 0 20 20" fill="none" xmlns="http://www.w3.org/2000/svg">
<g clip-path="url(#clip0_2212_9255)">
<path d="M7.91634 16.2498V14.9998H3.74967C3.29134 14.9998 2.87467 14.8165 2.57467 14.5082C2.26634 14.2082 2.08301 13.7915 2.08301 13.3332C2.08301 12.4748 2.74967 11.7582 3.59134 11.6748C3.64134 11.6665 3.69134 11.6665 3.74967 11.6665H16.2497C16.308 11.6665 16.358 11.6665 16.408 11.6748C16.808 11.7082 17.158 11.8832 17.4247 12.1582C17.7663 12.4915 17.9497 12.9665 17.908 13.4832C17.833 14.3582 17.0413 14.9998 16.158 14.9998H12.083V16.2498C12.083 17.3998 11.1497 18.3332 9.99967 18.3332C8.84967 18.3332 7.91634 17.3998 7.91634 16.2498Z" stroke="#01A781" stroke-linecap="round" stroke-linejoin="round"/>
<path d="M16.8085 4.4165L16.4085 11.6748C16.3585 11.6665 16.3085 11.6665 16.2501 11.6665H3.75014C3.6918 11.6665 3.6418 11.6665 3.5918 11.6748L3.1918 4.4165C3.0418 2.9415 4.20014 1.6665 5.67514 1.6665H14.3251C15.8001 1.6665 16.9585 2.9415 16.8085 4.4165Z" stroke="#01A781" stroke-linecap="round" stroke-linejoin="round"/>
<path d="M6.6582 1.6665V5.83317" stroke="#01A781" stroke-linecap="round" stroke-linejoin="round"/>
<path d="M10 1.6665V3.33317" stroke="#01A781" stroke-linecap="round" stroke-linejoin="round"/>
</g>
<defs>
<clipPath id="clip0_2212_9255">
<rect width="20" height="20" fill="white"/>
</clipPath>
</defs>
</svg>
