<svg width="14" height="14" viewBox="0 0 14 14" fill="none" xmlns="http://www.w3.org/2000/svg">
<path d="M1.21941 11.7186C1.0788 11.8593 0.999831 12.0501 0.999878 12.249C0.999925 12.4479 1.07898 12.6386 1.21966 12.7792C1.36034 12.9198 1.55112 12.9988 1.75003 12.9988C1.94893 12.9987 2.13967 12.9197 2.28028 12.779L6.91071 8.14904C6.92232 8.1374 6.93611 8.12817 6.9513 8.12187C6.96648 8.11557 6.98276 8.11232 6.9992 8.11232C7.01564 8.11232 7.03192 8.11557 7.0471 8.12187C7.06229 8.12817 7.07608 8.1374 7.08769 8.14904L11.7181 12.78C11.7877 12.8496 11.8704 12.9049 11.9614 12.9426C12.0524 12.9803 12.1499 12.9997 12.2484 12.9998C12.3469 12.9998 12.4444 12.9804 12.5354 12.9427C12.6264 12.9051 12.7091 12.8498 12.7787 12.7802C12.8484 12.7106 12.9037 12.6279 12.9414 12.537C12.9791 12.446 12.9985 12.3484 12.9985 12.25C12.9985 12.1515 12.9792 12.0539 12.9415 11.9629C12.9038 11.8719 12.8486 11.7893 12.779 11.7196L8.14906 7.08767C8.13742 7.07606 8.12819 7.06227 8.12188 7.04709C8.11558 7.0319 8.11234 7.01562 8.11234 6.99918C8.11234 6.98274 8.11558 6.96647 8.12188 6.95128C8.12819 6.9361 8.13742 6.9223 8.14906 6.91069L12.78 2.28027C12.9206 2.13945 12.9995 1.94855 12.9994 1.74955C12.9992 1.55055 12.9201 1.35976 12.7792 1.21915C12.6384 1.07853 12.4475 0.999615 12.2485 0.999756C12.0495 0.999897 11.8587 1.07908 11.7181 1.2199L7.08769 5.84933C7.07608 5.86096 7.06229 5.8702 7.0471 5.8765C7.03192 5.8828 7.01564 5.88604 6.9992 5.88604C6.98276 5.88604 6.96648 5.8828 6.9513 5.8765C6.93611 5.8702 6.92232 5.86096 6.91071 5.84933L2.28028 1.2199C2.21066 1.15024 2.128 1.09498 2.03701 1.05727C1.94603 1.01955 1.84851 1.00013 1.75003 1.00011C1.55112 1.00006 1.36034 1.07903 1.21966 1.21965C1.07898 1.36026 0.999925 1.551 0.999878 1.7499C0.999831 1.94881 1.0788 2.13959 1.21941 2.28027L5.84934 6.91069C5.86098 6.9223 5.87022 6.9361 5.87652 6.95128C5.88282 6.96647 5.88606 6.98274 5.88606 6.99918C5.88606 7.01562 5.88282 7.0319 5.87652 7.04709C5.87022 7.06227 5.86098 7.07606 5.84934 7.08767L1.21941 11.7186Z" fill="#01A781" stroke="#01A781"/>
</svg>
