<svg width="36" height="36" viewBox="0 0 36 36" fill="none" xmlns="http://www.w3.org/2000/svg">
<rect width="36" height="36" rx="10" fill="#27436F" fill-opacity="0.1"/>
<path d="M18.1331 17.0582C18.0498 17.0498 17.9498 17.0498 17.8581 17.0582C15.8748 16.9915 14.2998 15.3665 14.2998 13.3665C14.2998 11.3248 15.9498 9.6665 17.9998 9.6665C20.0415 9.6665 21.6998 11.3248 21.6998 13.3665C21.6915 15.3665 20.1165 16.9915 18.1331 17.0582Z" stroke="#27436F" stroke-linecap="round" stroke-linejoin="round"/>
<path d="M13.9666 20.1335C11.9499 21.4835 11.9499 23.6835 13.9666 25.0252C16.2583 26.5585 20.0166 26.5585 22.3083 25.0252C24.3249 23.6752 24.3249 21.4752 22.3083 20.1335C20.0249 18.6085 16.2666 18.6085 13.9666 20.1335Z" stroke="#27436F" stroke-linecap="round" stroke-linejoin="round"/>
</svg>
