<svg width="18" height="20" viewBox="0 0 18 20" fill="none" xmlns="http://www.w3.org/2000/svg">
<path d="M12.0833 4.99984V4.33317C12.0833 3.39975 12.0833 2.93304 11.9017 2.57652C11.7419 2.26292 11.4869 2.00795 11.1733 1.84816C10.8168 1.6665 10.3501 1.6665 9.41667 1.6665H8.08333C7.14991 1.6665 6.6832 1.6665 6.32668 1.84816C6.01308 2.00795 5.75811 2.26292 5.59832 2.57652C5.41667 2.93304 5.41667 3.39975 5.41667 4.33317V4.99984M7.08333 9.58317V13.7498M10.4167 9.58317V13.7498M1.25 4.99984H16.25M14.5833 4.99984V14.3332C14.5833 15.7333 14.5833 16.4334 14.3108 16.9681C14.0712 17.4386 13.6887 17.821 13.2183 18.0607C12.6835 18.3332 11.9835 18.3332 10.5833 18.3332H6.91667C5.51654 18.3332 4.81647 18.3332 4.28169 18.0607C3.81129 17.821 3.42883 17.4386 3.18915 16.9681C2.91667 16.4334 2.91667 15.7333 2.91667 14.3332V4.99984" stroke="#FF0000" stroke-width="1.66667" stroke-linecap="round" stroke-linejoin="round"/>
</svg>
