<svg width="21" height="20" viewBox="0 0 21 20" fill="none" xmlns="http://www.w3.org/2000/svg">
<path d="M3.14668 15.0963C3.18497 14.7517 3.20411 14.5794 3.25624 14.4184C3.30249 14.2755 3.36784 14.1396 3.45051 14.0142C3.54369 13.8729 3.66627 13.7503 3.91142 13.5052L14.9167 2.49992C15.8371 1.57945 17.3295 1.57945 18.25 2.49993C19.1705 3.4204 19.1705 4.91279 18.25 5.83326L7.24475 16.8385C6.9996 17.0836 6.87702 17.2062 6.73572 17.2994C6.61035 17.3821 6.47439 17.4474 6.33152 17.4937C6.17048 17.5458 5.99819 17.5649 5.65362 17.6032L2.83331 17.9166L3.14668 15.0963Z" stroke="#01A781" stroke-width="1.66667" stroke-linecap="round" stroke-linejoin="round"/>
</svg>
