<svg width="20" height="20" viewBox="0 0 20 20" fill="none" xmlns="http://www.w3.org/2000/svg">
<path d="M7.49996 18.3356H12.5C16.6666 18.3356 18.3333 16.6689 18.3333 12.5023V7.50228C18.3333 3.33561 16.6666 1.66895 12.5 1.66895H7.49996C3.33329 1.66895 1.66663 3.33561 1.66663 7.50228V12.5023C1.66663 16.6689 3.33329 18.3356 7.49996 18.3356Z" stroke="#01A781" stroke-linecap="round" stroke-linejoin="round"/>
<path d="M12.9166 8.12744C13.607 8.12744 14.1666 7.5678 14.1666 6.87744C14.1666 6.18709 13.607 5.62744 12.9166 5.62744C12.2263 5.62744 11.6666 6.18709 11.6666 6.87744C11.6666 7.5678 12.2263 8.12744 12.9166 8.12744Z" stroke="#01A781" stroke-miterlimit="10" stroke-linecap="round" stroke-linejoin="round"/>
<path d="M7.08337 8.12744C7.77373 8.12744 8.33337 7.5678 8.33337 6.87744C8.33337 6.18709 7.77373 5.62744 7.08337 5.62744C6.39302 5.62744 5.83337 6.18709 5.83337 6.87744C5.83337 7.5678 6.39302 8.12744 7.08337 8.12744Z" stroke="#01A781" stroke-miterlimit="10" stroke-linecap="round" stroke-linejoin="round"/>
<path d="M7 11.0859H13C13.4167 11.0859 13.75 11.4193 13.75 11.8359C13.75 13.9109 12.075 15.5859 10 15.5859C7.925 15.5859 6.25 13.9109 6.25 11.8359C6.25 11.4193 6.58333 11.0859 7 11.0859Z" stroke="#01A781" stroke-miterlimit="10" stroke-linecap="round" stroke-linejoin="round"/>
</svg>
