<svg width="20" height="20" viewBox="0 0 20 20" fill="none" xmlns="http://www.w3.org/2000/svg">
<path d="M12.8255 4.3415L14.0004 6.6915C14.1588 7.0165 14.5838 7.32483 14.9421 7.39149L17.0671 7.74149C18.4255 7.96649 18.7421 8.94983 17.7671 9.93316L16.1088 11.5915C15.8338 11.8665 15.6755 12.4082 15.7671 12.7998L16.2421 14.8498C16.6171 16.4665 15.7504 17.0998 14.3254 16.2498L12.3338 15.0665C11.9754 14.8498 11.3754 14.8498 11.0171 15.0665L9.02544 16.2498C7.60044 17.0915 6.73378 16.4665 7.10878 14.8498L7.58379 12.7998C7.67545 12.4165 7.51712 11.8748 7.24212 11.5915L5.58379 9.93316C4.60879 8.95816 4.92545 7.97483 6.28379 7.74149L8.40878 7.39149C8.76711 7.33316 9.19211 7.0165 9.35045 6.6915L10.5255 4.3415C11.1505 3.0665 12.1838 3.0665 12.8255 4.3415Z" stroke="#01A781" stroke-linecap="round" stroke-linejoin="round"/>
<path d="M6.66699 4.1665H1.66699" stroke="#01A781" stroke-linecap="round" stroke-linejoin="round"/>
<path d="M4.16699 15.8335H1.66699" stroke="#01A781" stroke-linecap="round" stroke-linejoin="round"/>
<path d="M2.50033 10H1.66699" stroke="#01A781" stroke-linecap="round" stroke-linejoin="round"/>
</svg>
