<svg width="36" height="36" viewBox="0 0 36 36" fill="none" xmlns="http://www.w3.org/2000/svg">
<rect width="36.0006" height="36" rx="10" fill="#27436F" fill-opacity="0.1"/>
<path d="M17.5 28C13.493 28 11.49 28 10.245 26.535C9 25.072 9 22.714 9 18C9 13.286 9 10.929 10.245 9.464C11.49 7.999 13.493 8 17.5 8C21.507 8 23.51 8 24.755 9.464C25.757 10.644 25.953 12.401 25.991 15.5M14 14H21M14 19H17" stroke="#27436F" stroke-linecap="round" stroke-linejoin="round"/>
<path d="M25.6101 24.105C26.1867 23.6859 26.6157 23.0951 26.8358 22.4173C27.0559 21.7394 27.0558 21.0092 26.8354 20.3314C26.615 19.6536 26.1857 19.063 25.609 18.6442C25.0323 18.2254 24.3379 17.9999 23.6251 18H23.3741C22.6615 18.0001 21.9672 18.2257 21.3907 18.6446C20.8141 19.0635 20.385 19.6541 20.1648 20.3319C19.9445 21.0096 19.9444 21.7397 20.1646 22.4175C20.3847 23.0953 20.8137 23.686 21.3901 24.105M21.3901 24.105C21.9663 24.5251 22.6611 24.751 23.3741 24.75H23.6241C24.3372 24.751 25.032 24.5251 25.6081 24.105L26.1911 25.94C26.4131 26.64 26.5251 26.99 26.4941 27.208C26.4311 27.662 26.0611 27.998 25.6241 28C25.4141 28 25.1001 27.836 24.4711 27.506C24.2011 27.364 24.0671 27.294 23.9291 27.252C23.6486 27.1681 23.3497 27.1681 23.0691 27.252C22.9311 27.294 22.7961 27.364 22.5271 27.506C21.8981 27.836 21.5841 28.001 21.3741 28C20.9371 27.998 20.5671 27.662 20.5041 27.208C20.4741 26.99 20.5841 26.64 20.8071 25.94L21.3901 24.105Z" stroke="#27436F" stroke-linecap="round" stroke-linejoin="round"/>
</svg>
