<svg width="72" height="72" viewBox="0 0 72 72" fill="none" xmlns="http://www.w3.org/2000/svg">
<path d="M32.2501 7.34984C34.3201 5.57984 37.7101 5.57984 39.8101 7.34984L44.5501 11.4302C45.4501 12.2102 47.1301 12.8401 48.3301 12.8401H53.4301C56.6101 12.8401 59.2201 15.4499 59.2201 18.6299V23.7301C59.2201 24.9001 59.8501 26.6101 60.6301 27.5101L64.7101 32.25C66.4801 34.32 66.4801 37.71 64.7101 39.81L60.6301 44.5499C59.8501 45.4499 59.2201 47.1299 59.2201 48.3299V53.4302C59.2201 56.6102 56.6101 59.22 53.4301 59.22H48.3301C47.1601 59.22 45.4501 59.8499 44.5501 60.6299L39.8101 64.7098C37.7401 66.4798 34.3501 66.4798 32.2501 64.7098L27.5102 60.6299C26.6102 59.8499 24.9301 59.22 23.7301 59.22H18.5401C15.3601 59.22 12.7501 56.6102 12.7501 53.4302V48.2999C12.7501 47.1299 12.1202 45.4499 11.3702 44.5499L7.32014 39.78C5.58014 37.71 5.58014 34.35 7.32014 32.28L11.3702 27.5101C12.1202 26.6101 12.7501 24.9301 12.7501 23.7601V18.6299C12.7501 15.4499 15.3601 12.8401 18.5401 12.8401H23.7301C24.9001 12.8401 26.6102 12.2102 27.5102 11.4302L32.2501 7.34984Z" stroke="#01A781" stroke-width="2" stroke-linecap="round" stroke-linejoin="round"/>
<g opacity="0.4">
<path d="M29.6704 44.46L34.0204 47.8199C34.5904 48.3899 35.8504 48.66 36.6904 48.66H42.0004C43.6804 48.66 45.5104 47.4001 45.9304 45.7201L49.2903 35.46C49.9803 33.51 48.7204 31.8 46.6204 31.8H41.0104C40.1704 31.8 39.4804 31.1102 39.6004 30.1202L40.2903 25.6202C40.5603 24.3602 39.7204 22.9501 38.4604 22.5301C37.3504 22.1101 35.9404 22.68 35.3704 23.52L29.6104 32.0699" stroke="#292D32" stroke-width="2" stroke-miterlimit="10"/>
<path d="M22.5 44.4598V30.72C22.5 28.74 23.34 28.0499 25.32 28.0499H26.73C28.68 28.0499 29.55 28.74 29.55 30.72V44.4598C29.55 46.4098 28.71 47.1299 26.73 47.1299H25.32C23.34 47.1299 22.5 46.4398 22.5 44.4598Z" stroke="#292D32" stroke-width="2" stroke-linecap="round" stroke-linejoin="round"/>
</g>
</svg>
