<?xml version="1.0" encoding="UTF-8"?>
<svg width="24px" height="24px" fill="none" role="img" viewBox="0 0 24 25" xmlns="http://www.w3.org/2000/svg">
<g filter="url(#a)">
<path d="M17 21.5c0 .276-2.239.5-5 .5s-5-.224-5-.5 2.239-.5 5-.5 5 .224 5 .5Z" fill="currentColor"/>
</g>
<path d="M13 16.93A7.001 7.001 0 0 0 12 3a7 7 0 0 0-1 13.93V21a1 1 0 1 0 2 0v-4.07ZM15 10a3 3 0 1 1-6 0 3 3 0 0 1 6 0Z" clip-rule="evenodd" fill="currentColor" fill-rule="evenodd"/>
<defs>
<filter id="a" x="4" y="18" width="16" height="7" color-interpolation-filters="sRGB" filterUnits="userSpaceOnUse">
<feFlood flood-opacity="0" result="BackgroundImageFix"/>
<feBlend in="SourceGraphic" in2="BackgroundImageFix" result="shape"/>
<feGaussianBlur result="effect1_foregroundBlur_4521_253" stdDeviation="1.5"/>
</filter>
</defs>
</svg>
