<svg width="36" height="36" viewBox="0 0 36 36" fill="none" xmlns="http://www.w3.org/2000/svg">
<rect width="36" height="36" rx="10" fill="#27436F" fill-opacity="0.1"/>
<path d="M9.9082 14.4835V22.5918C9.9082 24.1751 11.0332 24.8251 12.3999 24.0418L14.3582 22.9251C14.7832 22.6835 15.4915 22.6585 15.9332 22.8835L20.3082 25.0751C20.7499 25.2918 21.4582 25.2751 21.8832 25.0335L25.4915 22.9668C25.9499 22.7001 26.3332 22.0501 26.3332 21.5168V13.4085C26.3332 11.8251 25.2082 11.1751 23.8415 11.9585L21.8832 13.0751C21.4582 13.3168 20.7499 13.3418 20.3082 13.1168L15.9332 10.9335C15.4915 10.7168 14.7832 10.7335 14.3582 10.9751L10.7499 13.0418C10.2832 13.3085 9.9082 13.9585 9.9082 14.4835Z" stroke="#27436F" stroke-linecap="round" stroke-linejoin="round"/>
<path d="M15.1333 11.3335V22.1668" stroke="#27436F" stroke-linecap="round" stroke-linejoin="round"/>
<path d="M21.1084 13.5166V24.6666" stroke="#27436F" stroke-linecap="round" stroke-linejoin="round"/>
</svg>
