<svg width="20" height="20" viewBox="0 0 20 20" fill="none" xmlns="http://www.w3.org/2000/svg">
<path d="M10 5.3667V8.1417" stroke="#01A781" stroke-width="1.5" stroke-miterlimit="10" stroke-linecap="round"/>
<path d="M10.0167 1.6665C6.95001 1.6665 4.46667 4.14984 4.46667 7.2165V8.9665C4.46667 9.53317 4.23334 10.3832 3.94167 10.8665L2.88334 12.6332C2.23334 13.7248 2.68334 14.9415 3.88334 15.3415C7.86667 16.6665 12.175 16.6665 16.1583 15.3415C17.2833 14.9665 17.7667 13.6498 17.1583 12.6332L16.1 10.8665C15.8083 10.3832 15.575 9.52484 15.575 8.9665V7.2165C15.5667 4.1665 13.0667 1.6665 10.0167 1.6665Z" stroke="#01A781" stroke-width="1.5" stroke-miterlimit="10" stroke-linecap="round"/>
<path d="M12.775 15.6831C12.775 17.2081 11.525 18.4581 10 18.4581C9.24167 18.4581 8.54167 18.1414 8.04167 17.6414C7.54167 17.1414 7.22501 16.4414 7.22501 15.6831" stroke="#01A781" stroke-width="1.5" stroke-miterlimit="10"/>
</svg>
