<svg width="20" height="20" viewBox="0 0 20 20" fill="none" xmlns="http://www.w3.org/2000/svg">
<path d="M17.4252 9.26658C17.4252 13.3416 14.4669 17.1582 10.4252 18.2749C10.1502 18.3499 9.85019 18.3499 9.57519 18.2749C5.53352 17.1582 2.5752 13.3416 2.5752 9.26658V5.60824C2.5752 4.92491 3.09187 4.14991 3.73354 3.89158L8.37519 1.9916C9.41686 1.5666 10.5919 1.5666 11.6335 1.9916L16.2752 3.89158C16.9085 4.14991 17.4335 4.92491 17.4335 5.60824L17.4252 9.26658Z" stroke="#01A781" stroke-linecap="round" stroke-linejoin="round"/>
<path d="M9.99967 10.4168C10.9201 10.4168 11.6663 9.67064 11.6663 8.75016C11.6663 7.82969 10.9201 7.0835 9.99967 7.0835C9.0792 7.0835 8.33301 7.82969 8.33301 8.75016C8.33301 9.67064 9.0792 10.4168 9.99967 10.4168Z" stroke="#01A781" stroke-miterlimit="10" stroke-linecap="round" stroke-linejoin="round"/>
<path d="M10 10.417V12.917" stroke="#01A781" stroke-miterlimit="10" stroke-linecap="round" stroke-linejoin="round"/>
</svg>
