<svg width="16" height="15" viewBox="0 0 16 15" fill="none" xmlns="http://www.w3.org/2000/svg">
<path d="M15.0258 10.938C15.5924 11.4014 15.6358 12.218 15.1183 12.7355L13.3883 14.4655C11.8449 16.0089 6.8966 13.9805 4.19827 11.2822C1.4991 8.58221 -0.529232 3.63471 1.0141 2.09054L2.7441 0.361379C2.86307 0.239619 3.00658 0.144564 3.1651 0.0825258C3.32362 0.020488 3.49353 -0.00711244 3.66354 0.00155745C3.83355 0.0102273 3.99977 0.0549692 4.15116 0.132811C4.30255 0.210654 4.43564 0.319815 4.5416 0.453045L6.8366 3.25804C7.04826 3.52214 7.15595 3.85456 7.13937 4.1926C7.12279 4.53064 6.98309 4.85093 6.7466 5.09305L5.65493 6.18638C5.5166 6.32388 5.4791 6.60971 5.57577 6.77138C5.67452 6.95752 5.783 7.13832 5.90077 7.31304C6.1741 7.71721 6.51494 8.13804 6.9291 8.55138C7.34244 8.96471 7.76327 9.30638 8.1691 9.57971C8.33187 9.68942 8.49985 9.79121 8.67243 9.88471C8.8716 9.99888 9.15827 9.96138 9.2941 9.82638L10.3874 8.73221C10.6297 8.49624 10.9498 8.35693 11.2876 8.34051C11.6254 8.32409 11.9576 8.43168 12.2216 8.64304L15.0258 10.938ZM4.92577 5.45805L6.0191 4.36638C6.07479 4.30471 6.10731 4.22561 6.11111 4.14261C6.11491 4.05962 6.08975 3.97787 6.03994 3.91138L3.74494 1.10555C3.6666 1.00971 3.5566 1.00388 3.47243 1.08888L1.7416 2.81971C0.774102 3.78721 2.59077 8.21804 4.92577 10.553C7.26077 12.8889 11.6924 14.7055 12.6599 13.738L14.3899 12.008C14.4758 11.9222 14.4699 11.813 14.3733 11.7347L11.5691 9.43971C11.5026 9.3899 11.4209 9.36473 11.3379 9.36854C11.2549 9.37234 11.1758 9.40486 11.1141 9.46054L10.0216 10.5539C9.5591 11.0155 8.7716 11.1222 8.2041 10.8022C7.99289 10.692 7.78862 10.569 7.59243 10.4339C7.1341 10.1255 6.66244 9.74221 6.20077 9.27971C5.77242 8.8538 5.38593 8.38778 5.0466 7.88804C4.86743 7.62221 4.7466 7.41304 4.68077 7.28138C4.35327 6.71304 4.46244 5.92221 4.92577 5.45805Z" fill="#01A781"/>
</svg>
