<svg width="16" height="15" viewBox="0 0 16 15" fill="none" xmlns="http://www.w3.org/2000/svg">
<path d="M15.0458 10.9385C15.6125 11.4019 15.6558 12.2185 15.1383 12.736L13.4083 14.466C11.865 16.0094 6.91662 13.981 4.21829 11.2827C1.51912 8.5827 -0.509212 3.6352 1.03412 2.09103L2.76412 0.361867C2.88309 0.240107 3.0266 0.145052 3.18512 0.0830141C3.34364 0.0209763 3.51355 -0.00662416 3.68356 0.00204573C3.85357 0.0107156 4.01979 0.0554574 4.17118 0.1333C4.32256 0.211142 4.45566 0.320303 4.56162 0.453533L6.85662 3.25853C7.06828 3.52263 7.17597 3.85505 7.15939 4.19309C7.14281 4.53113 7.00311 4.85142 6.76662 5.09353L5.67495 6.18687C5.53662 6.32437 5.49912 6.6102 5.59579 6.77187C5.69453 6.958 5.80302 7.13881 5.92079 7.31353C6.19412 7.7177 6.53496 8.13853 6.94912 8.55187C7.36245 8.9652 7.78329 9.30687 8.18912 9.5802C8.35189 9.68991 8.51987 9.7917 8.69245 9.8852C8.89162 9.99937 9.17829 9.96187 9.31412 9.82687L10.4075 8.7327C10.6497 8.49673 10.9699 8.35742 11.3077 8.341C11.6455 8.32458 11.9776 8.43217 12.2416 8.64353L15.0458 10.9385ZM4.94579 5.45853L6.03912 4.36687C6.09481 4.3052 6.12733 4.2261 6.13113 4.1431C6.13493 4.0601 6.10977 3.97836 6.05995 3.91187L3.76495 1.10603C3.68662 1.0102 3.57662 1.00437 3.49245 1.08937L1.76162 2.8202C0.794121 3.7877 2.61079 8.21853 4.94579 10.5535C7.28079 12.8894 11.7125 14.706 12.68 13.7385L14.41 12.0085C14.4958 11.9227 14.49 11.8135 14.3933 11.7352L11.5891 9.4402C11.5226 9.39038 11.4409 9.36522 11.3579 9.36902C11.2749 9.37282 11.1958 9.40535 11.1341 9.46103L10.0416 10.5544C9.57912 11.016 8.79162 11.1227 8.22412 10.8027C8.01291 10.6925 7.80864 10.5695 7.61245 10.4344C7.15412 10.126 6.68245 9.7427 6.22079 9.2802C5.79244 8.85429 5.40595 8.38827 5.06662 7.88853C4.88745 7.6227 4.76662 7.41353 4.70079 7.28187C4.37329 6.71353 4.48245 5.9227 4.94579 5.45853Z" fill="#01A781"/>
</svg>
