<svg width="20" height="20" viewBox="0 0 20 20" fill="none" xmlns="http://www.w3.org/2000/svg">
<path d="M5.60829 16.417C6.29163 15.6837 7.33329 15.742 7.93329 16.542L8.77496 17.667C9.44996 18.5587 10.5416 18.5587 11.2166 17.667L12.0583 16.542C12.6583 15.742 13.7 15.6837 14.3833 16.417C15.8666 18.0003 17.075 17.4753 17.075 15.2587V5.86699C17.0833 2.50866 16.3 1.66699 13.15 1.66699H6.84996C3.69996 1.66699 2.91663 2.50866 2.91663 5.86699V15.2503C2.91663 17.4753 4.13329 17.992 5.60829 16.417Z" stroke="#01A781" stroke-linecap="round" stroke-linejoin="round"/>
<path d="M7.5 10.834L12.5 5.83398" stroke="#01A781" stroke-linecap="round" stroke-linejoin="round"/>
<path d="M12.4955 10.8337H12.5029" stroke="#01A781" stroke-width="1.5" stroke-linecap="round" stroke-linejoin="round"/>
<path d="M7.49546 6.25065H7.50295" stroke="#01A781" stroke-width="1.5" stroke-linecap="round" stroke-linejoin="round"/>
</svg>
