<svg width="20" height="20" viewBox="0 0 20 20" fill="none" xmlns="http://www.w3.org/2000/svg">
<path d="M17.425 9.26903C17.425 13.344 14.4666 17.1607 10.425 18.2774C10.15 18.3524 9.84995 18.3524 9.57495 18.2774C5.53328 17.1607 2.57495 13.344 2.57495 9.26903V5.61068C2.57495 4.92735 3.09163 4.15235 3.7333 3.89402L8.37494 1.99404C9.41661 1.56904 10.5916 1.56904 11.6333 1.99404L16.275 3.89402C16.9083 4.15235 17.4333 4.92735 17.4333 5.61068L17.425 9.26903Z" stroke="#01A781" stroke-linecap="round" stroke-linejoin="round"/>
<path d="M10 10.4193C10.9205 10.4193 11.6667 9.67308 11.6667 8.7526C11.6667 7.83213 10.9205 7.08594 10 7.08594C9.07957 7.08594 8.33337 7.83213 8.33337 8.7526C8.33337 9.67308 9.07957 10.4193 10 10.4193Z" stroke="#01A781" stroke-miterlimit="10" stroke-linecap="round" stroke-linejoin="round"/>
<path d="M10 10.4194V12.9194" stroke="#01A781" stroke-miterlimit="10" stroke-linecap="round" stroke-linejoin="round"/>
</svg>
