<svg viewBox="0 0 13 13" focusable="false" class="chakra-icon css-cuj815"><path d="M10.2727 6.73415H11.6789V10.0469H10.2727V6.73415ZM7.60946 6.73415H9.01558V10.0469H7.60946V6.73415ZM4.94687 6.73415H6.35298V10.0469H4.94687V6.73415ZM2.28358 6.73415H3.68969V10.0469H2.28358V6.73415ZM12.1475 5.69655V5.35068H1.81417V5.69655C1.81417 5.88754 1.97158 6.04239 2.16569 6.04239H11.7953C11.9895 6.04239 12.1469 5.88754 12.1469 5.69655H12.1475ZM12.6297 10.7387H1.33346C1.13864 10.7387 0.981935 10.8935 0.981935 11.0845V12.0069C0.981935 12.1979 1.13864 12.3527 1.33346 12.3527H12.6297C12.8238 12.3527 12.9812 12.1979 12.9812 12.0069V11.0845C12.9812 10.8935 12.8238 10.7387 12.6297 10.7387ZM1.33276 4.65895H12.6297C12.7871 4.65895 12.9247 4.55616 12.9685 4.40685C13.0108 4.25822 12.9473 4.09918 12.8139 4.01792L7.16546 0.597466C7.05249 0.528709 6.90991 0.528709 6.797 0.597466L1.14852 4.01792C1.01441 4.09918 0.951582 4.25822 0.99464 4.40685C1.03699 4.55616 1.17535 4.65895 1.33276 4.65895ZM6.74191 2.58029H7.22049C7.41462 2.58029 7.57204 2.73516 7.57204 2.92615C7.57204 3.11784 7.41462 3.27202 7.22049 3.27202H6.7412C6.54707 3.27202 6.38969 3.11784 6.38969 2.92615C6.38969 2.73516 6.54707 2.58029 6.7412 2.58029H6.74191Z" fill="black"></path></svg>
