<svg width="20" height="20" viewBox="0 0 20 20" fill="none" xmlns="http://www.w3.org/2000/svg">
<path d="M10 12.5C11.3807 12.5 12.5 11.3807 12.5 10C12.5 8.61929 11.3807 7.5 10 7.5C8.61929 7.5 7.5 8.61929 7.5 10C7.5 11.3807 8.61929 12.5 10 12.5Z" stroke="#01A781" stroke-miterlimit="10" stroke-linecap="round" stroke-linejoin="round"/>
<path d="M1.66663 10.7334V9.2667C1.66663 8.40003 2.37496 7.68336 3.24996 7.68336C4.75829 7.68336 5.37496 6.6167 4.61663 5.30836C4.18329 4.55836 4.44163 3.58336 5.19996 3.15003L6.64163 2.32503C7.29996 1.93336 8.14996 2.1667 8.54163 2.82503L8.63329 2.98336C9.38329 4.2917 10.6166 4.2917 11.375 2.98336L11.4666 2.82503C11.8583 2.1667 12.7083 1.93336 13.3666 2.32503L14.8083 3.15003C15.5666 3.58336 15.825 4.55836 15.3916 5.30836C14.6333 6.6167 15.25 7.68336 16.7583 7.68336C17.625 7.68336 18.3416 8.3917 18.3416 9.2667V10.7334C18.3416 11.6 17.6333 12.3167 16.7583 12.3167C15.25 12.3167 14.6333 13.3834 15.3916 14.6917C15.825 15.45 15.5666 16.4167 14.8083 16.85L13.3666 17.675C12.7083 18.0667 11.8583 17.8334 11.4666 17.175L11.375 17.0167C10.625 15.7084 9.39163 15.7084 8.63329 17.0167L8.54163 17.175C8.14996 17.8334 7.29996 18.0667 6.64163 17.675L5.19996 16.85C4.44163 16.4167 4.18329 15.4417 4.61663 14.6917C5.37496 13.3834 4.75829 12.3167 3.24996 12.3167C2.37496 12.3167 1.66663 11.6 1.66663 10.7334Z" stroke="#01A781" stroke-miterlimit="10" stroke-linecap="round" stroke-linejoin="round"/>
</svg>
