<svg width="20" height="20" viewBox="0 0 20 20" fill="none" xmlns="http://www.w3.org/2000/svg">
<path d="M11.4417 2.92617L12.9084 5.85951C13.1084 6.26784 13.6417 6.65951 14.0917 6.73451L16.75 7.17617C18.45 7.4595 18.85 8.69284 17.625 9.90951L15.5584 11.9762C15.2084 12.3262 15.0167 13.0012 15.125 13.4845L15.7167 16.0428C16.1834 18.0678 15.1084 18.8512 13.3167 17.7928L10.825 16.3178C10.375 16.0512 9.63338 16.0512 9.17505 16.3178L6.68338 17.7928C4.90005 18.8512 3.81671 18.0595 4.28338 16.0428L4.87505 13.4845C4.98338 13.0012 4.79171 12.3262 4.44171 11.9762L2.37505 9.90951C1.15838 8.69284 1.55005 7.4595 3.25005 7.17617L5.90838 6.73451C6.35005 6.65951 6.88338 6.26784 7.08338 5.85951L8.55005 2.92617C9.35005 1.33451 10.65 1.33451 11.4417 2.92617Z" stroke="#01A781" stroke-linecap="round" stroke-linejoin="round"/>
</svg>
