<svg width="22" height="21" viewBox="0 0 22 21" fill="none" xmlns="http://www.w3.org/2000/svg">
<g clip-path="url(#clip0_980_6144)">
<path fill-rule="evenodd" clip-rule="evenodd" d="M13.71 0.0573341C14.6529 0.37162 14.6857 2.57162 15.4714 3.13733C16.2571 3.73591 18.3329 3.04305 18.9286 3.86162C19.5286 4.64733 18.2386 6.43733 18.5529 7.38019C18.8671 8.32305 20.9429 8.98305 20.9429 10.0202C20.9429 11.0559 18.8671 11.7488 18.5529 12.6602C18.2386 13.603 19.4957 15.393 18.93 16.1788C18.3629 16.9973 16.2886 16.3059 15.4714 16.903C14.6857 17.5002 14.6529 19.6688 13.71 19.983C12.7671 20.2973 11.51 18.5373 10.4714 18.5359C9.43286 18.5359 8.14286 20.2973 7.23286 19.983C6.29 19.6688 6.25714 17.4688 5.47143 16.903C4.68571 16.3045 2.61 16.9973 2.01429 16.1788C1.41429 15.393 2.70429 13.603 2.39 12.6602C2.07571 11.7173 0 11.0573 0 10.0202C0 8.98448 2.07571 8.29162 2.39 7.38019C2.70429 6.43733 1.44714 4.64733 2.01286 3.86162C2.57857 3.04305 4.65286 3.73448 5.47143 3.13733C6.25714 2.54019 6.29 0.37162 7.23286 0.0573341C8.14571 -0.256952 9.43286 1.50448 10.4714 1.50448C11.5086 1.50448 12.7986 -0.256952 13.71 0.0573341Z" fill="#27436F"/>
<path fill-rule="evenodd" clip-rule="evenodd" d="M14.8572 7.40856C15.1029 7.65142 15.1086 8.04428 14.8715 8.29428L14.8643 8.30142L10.0129 13.2343C9.7786 13.4714 9.40146 13.4857 9.15003 13.2686L9.14289 13.2614L6.11003 10.5471C5.85003 10.3128 5.8286 9.91571 6.06146 9.65571C6.29003 9.39856 6.68432 9.37428 6.94432 9.59856L6.95146 9.60571L9.53575 11.92L13.9643 7.41571C14.2086 7.16714 14.6072 7.16428 14.8572 7.40856Z" fill="white"/>
</g>
<defs>
<clipPath id="clip0_980_6144">
<rect width="21.4286" height="20" fill="white" transform="translate(0 0.0200195)"/>
</clipPath>
</defs>
</svg>
