<svg width="20" height="20" viewBox="0 0 20 20" fill="none" xmlns="http://www.w3.org/2000/svg">
<path d="M5.60866 16.4165C6.29199 15.6832 7.33366 15.7415 7.93366 16.5415L8.77533 17.6665C9.45033 18.5582 10.542 18.5582 11.217 17.6665L12.0587 16.5415C12.6587 15.7415 13.7003 15.6832 14.3837 16.4165C15.867 17.9998 17.0753 17.4748 17.0753 15.2582V5.8665C17.0837 2.50817 16.3003 1.6665 13.1503 1.6665H6.85033C3.70033 1.6665 2.91699 2.50817 2.91699 5.8665V15.2498C2.91699 17.4748 4.13366 17.9915 5.60866 16.4165Z" stroke="#01A781" stroke-linecap="round" stroke-linejoin="round"/>
<path d="M6.74705 9.16667H6.75454" stroke="#01A781" stroke-linecap="round" stroke-linejoin="round"/>
<path d="M9.08203 9.1665H13.6654" stroke="#01A781" stroke-linecap="round" stroke-linejoin="round"/>
<path d="M6.74705 5.83317H6.75454" stroke="#01A781" stroke-linecap="round" stroke-linejoin="round"/>
<path d="M9.08203 5.8335H13.6654" stroke="#01A781" stroke-linecap="round" stroke-linejoin="round"/>
</svg>
