<svg width="16" height="17" viewBox="0 0 16 17" fill="none" xmlns="http://www.w3.org/2000/svg">
<path d="M14 4.48665C11.78 4.26665 9.54667 4.15332 7.32 4.15332C6 4.15332 4.68 4.21999 3.36 4.35332L2 4.48665" stroke="#FF0000" stroke-linecap="round" stroke-linejoin="round"/>
<path d="M5.66666 3.8135L5.81332 2.94016C5.91999 2.30683 5.99999 1.8335 7.12666 1.8335H8.87332C9.99999 1.8335 10.0867 2.3335 10.1867 2.94683L10.3333 3.8135" stroke="#FF0000" stroke-linecap="round" stroke-linejoin="round"/>
<path d="M12.5667 6.59326L12.1333 13.3066C12.06 14.3533 12 15.1666 10.14 15.1666H5.85999C3.99999 15.1666 3.93999 14.3533 3.86665 13.3066L3.43332 6.59326" stroke="#FF0000" stroke-linecap="round" stroke-linejoin="round"/>
<path d="M6.88666 11.5H9.10666" stroke="#FF0000" stroke-linecap="round" stroke-linejoin="round"/>
<path d="M6.33334 8.8335H9.66668" stroke="#FF0000" stroke-linecap="round" stroke-linejoin="round"/>
</svg>
