<svg width="20" height="20" viewBox="0 0 20 20" fill="none" xmlns="http://www.w3.org/2000/svg">
<path d="M17.5667 7.15231V12.8523C17.5667 13.7856 17.0667 14.6523 16.2584 15.1273L11.3084 17.9856C10.5 18.4523 9.50005 18.4523 8.68338 17.9856L3.73338 15.1273C2.92505 14.6606 2.42505 13.7939 2.42505 12.8523V7.15231C2.42505 6.21897 2.92505 5.35227 3.73338 4.87727L8.68338 2.01895C9.49172 1.55228 10.4917 1.55228 11.3084 2.01895L16.2584 4.87727C17.0667 5.35227 17.5667 6.21064 17.5667 7.15231Z" stroke="#01A781" stroke-linecap="round" stroke-linejoin="round"/>
<path d="M10 9.16896C11.0724 9.16896 11.9417 8.29963 11.9417 7.22727C11.9417 6.15492 11.0724 5.28564 10 5.28564C8.92766 5.28564 8.05835 6.15492 8.05835 7.22727C8.05835 8.29963 8.92766 9.16896 10 9.16896Z" stroke="#01A781" stroke-linecap="round" stroke-linejoin="round"/>
<path d="M13.3333 13.8856C13.3333 12.3856 11.8416 11.1689 9.99996 11.1689C8.15829 11.1689 6.66663 12.3856 6.66663 13.8856" stroke="#01A781" stroke-linecap="round" stroke-linejoin="round"/>
</svg>
