<svg width="38" height="36" viewBox="0 0 38 36" fill="none" xmlns="http://www.w3.org/2000/svg">
<rect width="38" height="36" rx="10" fill="#27436F" fill-opacity="0.1"/>
<path d="M21.4998 9.6665V17.9998C21.4998 18.9165 20.7498 19.6665 19.8332 19.6665H10.6665V12.9998C10.6665 11.1582 12.1582 9.6665 13.9998 9.6665H21.4998Z" stroke="#27436F" stroke-linecap="round" stroke-linejoin="round"/>
<path d="M27.3332 19.6665V22.1665C27.3332 23.5498 26.2165 24.6665 24.8332 24.6665H23.9998C23.9998 23.7498 23.2498 22.9998 22.3332 22.9998C21.4165 22.9998 20.6665 23.7498 20.6665 24.6665H17.3332C17.3332 23.7498 16.5832 22.9998 15.6665 22.9998C14.7498 22.9998 13.9998 23.7498 13.9998 24.6665H13.1665C11.7832 24.6665 10.6665 23.5498 10.6665 22.1665V19.6665H19.8332C20.7498 19.6665 21.4998 18.9165 21.4998 17.9998V12.1665H23.0332C23.6332 12.1665 24.1832 12.4915 24.4832 13.0082L25.9082 15.4998H24.8332C24.3748 15.4998 23.9998 15.8748 23.9998 16.3332V18.8332C23.9998 19.2915 24.3748 19.6665 24.8332 19.6665H27.3332Z" stroke="#27436F" stroke-linecap="round" stroke-linejoin="round"/>
<path d="M15.6667 26.3333C16.5871 26.3333 17.3333 25.5871 17.3333 24.6667C17.3333 23.7462 16.5871 23 15.6667 23C14.7462 23 14 23.7462 14 24.6667C14 25.5871 14.7462 26.3333 15.6667 26.3333Z" stroke="#27436F" stroke-linecap="round" stroke-linejoin="round"/>
<path d="M22.3332 26.3333C23.2536 26.3333 23.9998 25.5871 23.9998 24.6667C23.9998 23.7462 23.2536 23 22.3332 23C21.4127 23 20.6665 23.7462 20.6665 24.6667C20.6665 25.5871 21.4127 26.3333 22.3332 26.3333Z" stroke="#27436F" stroke-linecap="round" stroke-linejoin="round"/>
<path d="M27.3333 18V19.6667H24.8333C24.375 19.6667 24 19.2917 24 18.8333V16.3333C24 15.875 24.375 15.5 24.8333 15.5H25.9083L27.3333 18Z" stroke="#27436F" stroke-linecap="round" stroke-linejoin="round"/>
</svg>
