<svg width="20" height="20" viewBox="0 0 20 20" fill="none" xmlns="http://www.w3.org/2000/svg">
<path d="M6.98328 10.002L8.99161 12.0187L13.0166 7.98535" stroke="#01A781" stroke-linecap="round" stroke-linejoin="round"/>
<path d="M8.95828 2.04355C9.53328 1.55189 10.4749 1.55189 11.0583 2.04355L12.3749 3.17689C12.6249 3.39355 13.0916 3.56855 13.4249 3.56855H14.8416C15.7249 3.56855 16.4499 4.29355 16.4499 5.17689V6.59355C16.4499 6.91855 16.6249 7.39355 16.8416 7.64355L17.9749 8.96022C18.4666 9.53522 18.4666 10.4769 17.9749 11.0602L16.8416 12.3769C16.6249 12.6269 16.4499 13.0936 16.4499 13.4269V14.8436C16.4499 15.7269 15.7249 16.4519 14.8416 16.4519H13.4249C13.0999 16.4519 12.6249 16.6269 12.3749 16.8436L11.0583 17.9769C10.4833 18.4686 9.54161 18.4686 8.95828 17.9769L7.64161 16.8436C7.39161 16.6269 6.92494 16.4519 6.59161 16.4519H5.14994C4.26661 16.4519 3.54161 15.7269 3.54161 14.8436V13.4186C3.54161 13.0936 3.36661 12.6269 3.15828 12.3769L2.03328 11.0519C1.54994 10.4769 1.54994 9.54356 2.03328 8.96856L3.15828 7.64355C3.36661 7.39355 3.54161 6.92689 3.54161 6.60189V5.16855C3.54161 4.28522 4.26661 3.56022 5.14994 3.56022H6.59161C6.91661 3.56022 7.39161 3.38522 7.64161 3.16855L8.95828 2.04355Z" stroke="#01A781" stroke-linecap="round" stroke-linejoin="round"/>
</svg>
