<svg width="23" height="19" viewBox="0 0 23 19" fill="none" xmlns="http://www.w3.org/2000/svg">
<path fill-rule="evenodd" clip-rule="evenodd" d="M4.99023 2C4.99023 0.89543 5.88566 0 6.99023 0H16.9902C18.0948 0 18.9902 0.895431 18.9902 2V5C18.9902 6.10457 18.0948 7 16.9902 7H12.4902V9.25H16.9902C17.9567 9.25 18.7402 10.0335 18.7402 11V13H20.9902C22.0948 13 22.9902 13.8954 22.9902 15V17C22.9902 18.1046 22.0948 19 20.9902 19H14.9902C13.8857 19 12.9902 18.1046 12.9902 17V15C12.9902 13.8954 13.8857 13 14.9902 13H17.2402V11C17.2402 10.8619 17.1283 10.75 16.9902 10.75H6.99023C6.85216 10.75 6.74023 10.8619 6.74023 11V13H8.99023C10.0948 13 10.9902 13.8954 10.9902 15V17C10.9902 18.1046 10.0948 19 8.99023 19H2.99023C1.88566 19 0.990234 18.1046 0.990234 17V15C0.990234 13.8954 1.88566 13 2.99023 13H5.24023V11C5.24023 10.0335 6.02374 9.25 6.99023 9.25H10.9902V7H6.99023C5.88566 7 4.99023 6.10457 4.99023 5V2ZM6.99023 1.5H16.9902C17.2664 1.5 17.4902 1.72386 17.4902 2V5C17.4902 5.27614 17.2664 5.5 16.9902 5.5H6.99023C6.71409 5.5 6.49023 5.27614 6.49023 5V2C6.49023 1.72386 6.71409 1.5 6.99023 1.5ZM2.99023 14.5H8.99023C9.26638 14.5 9.49023 14.7239 9.49023 15V17C9.49023 17.2761 9.26638 17.5 8.99023 17.5H2.99023C2.71409 17.5 2.49023 17.2761 2.49023 17V15C2.49023 14.7239 2.71409 14.5 2.99023 14.5ZM20.9902 14.5H14.9902C14.7141 14.5 14.4902 14.7239 14.4902 15V17C14.4902 17.2761 14.7141 17.5 14.9902 17.5H20.9902C21.2664 17.5 21.4902 17.2761 21.4902 17V15C21.4902 14.7239 21.2664 14.5 20.9902 14.5Z" fill="#404040"/>
</svg>
